walking_03
version=1
nRows=16
nColumns=46
inDegrees=yes
endheader
time	ground_force3_vx	ground_force3_vy	ground_force3_vz	ground_force3_px	ground_force3_py	ground_force3_pz	ground_torque3_x	ground_torque3_y	ground_torque3_z	ground_force5_vx	ground_force5_vy	ground_force5_vz	ground_force5_px	ground_force5_py	ground_force5_pz	ground_torque5_x	ground_torque5_y	ground_torque5_z	ground_force4_vx	ground_force4_vy	ground_force4_vz	ground_force4_px	ground_force4_py	ground_force4_pz	ground_torque4_x	ground_torque4_y	ground_torque4_z	ground_force1_vx	ground_force1_vy	ground_force1_vz	ground_force1_px	ground_force1_py	ground_force1_pz	ground_torque1_x	ground_torque1_y	ground_torque1_z	ground_force2_vx	ground_force2_vy	ground_force2_vz	ground_force2_px	ground_force2_py	ground_force2_pz	ground_torque2_x	ground_torque2_y	ground_torque2_z
5.640000	-0.000000	-0.000000	0.000000	0.200000	0.000000	-0.300000	0.000000	0.000000	-0.000000	15.056196	99.256577	-26.398623	0.298519	0.000000	-1.810750	0.000007	-0.391878	0.000002	-0.000000	-0.000000	0.000000	0.200000	0.000000	-0.902000	0.000000	0.000000	-0.000000	-0.000000	-0.000000	0.000000	0.200000	0.000000	0.904000	0.000000	0.000000	-0.000000	-0.000000	-0.000000	0.000000	0.400000	0.000000	0.302000	0.000000	0.000000	-0.000000	
5.641000	-0.000000	-0.000000	0.000000	0.200000	0.000000	-0.300000	0.000000	0.000000	-0.000000	14.574085	100.526810	-26.559834	0.289859	0.000000	-1.794956	0.000006	-0.382216	0.000002	-0.000000	-0.000000	0.000000	0.200000	0.000000	-0.902000	0.000000	0.000000	-0.000000	-0.000000	-0.000000	0.000000	0.200000	0.000000	0.904000	0.000000	0.000000	-0.000000	-0.000000	-0.000000	0.000000	0.400000	0.000000	0.302000	0.000000	0.000000	-0.000000	
5.642000	-0.000000	-0.000000	0.000000	0.200000	0.000000	-0.300000	0.000000	0.000000	-0.000000	14.091466	100.524155	-27.523378	0.285981	0.000000	-1.793394	0.000002	-0.194968	0.000004	-0.000000	-0.000000	0.000000	0.200000	0.000000	-0.902000	0.000000	0.000000	-0.000000	-0.000000	-0.000000	0.000000	0.200000	0.000000	0.904000	0.000000	0.000000	-0.000000	-0.000000	-0.000000	0.000000	0.400000	0.000000	0.302000	0.000000	0.000000	-0.000000	
5.643000	-0.000000	-0.000000	0.000000	0.200000	0.000000	-0.300000	0.000000	0.000000	-0.000000	14.896510	97.019043	-26.880226	0.292241	0.000000	-1.798957	0.000009	-0.391643	0.000002	-0.000000	-0.000000	0.000000	0.200000	0.000000	-0.902000	0.000000	0.000000	-0.000000	-0.000000	-0.000000	0.000000	0.200000	0.000000	0.904000	0.000000	0.000000	-0.000000	-0.000000	-0.000000	0.000000	0.400000	0.000000	0.302000	0.000000	0.000000	-0.000000	
5.644000	-0.000000	-0.000000	0.000000	0.200000	0.000000	-0.300000	0.000000	0.000000	-0.000000	13.609356	96.381271	-27.362843	0.291544	0.000000	-1.799929	0.000001	-0.121668	0.000001	-0.000000	-0.000000	0.000000	0.200000	0.000000	-0.902000	0.000000	0.000000	-0.000000	-0.000000	-0.000000	0.000000	0.200000	0.000000	0.904000	0.000000	0.000000	-0.000000	-0.000000	-0.000000	0.000000	0.400000	0.000000	0.302000	0.000000	0.000000	-0.000000	
5.645000	-0.000000	-0.000000	0.000000	0.200000	0.000000	-0.300000	0.000000	0.000000	-0.000000	13.126736	94.150391	-26.880562	0.291709	0.000000	-1.797876	0.000011	-0.004299	0.000003	-0.000000	-0.000000	0.000000	0.200000	0.000000	-0.902000	0.000000	0.000000	-0.000000	-0.000000	-0.000000	0.000000	0.200000	0.000000	0.904000	0.000000	0.000000	-0.000000	-0.000000	-0.000000	0.000000	0.400000	0.000000	0.302000	0.000000	0.000000	-0.000000	
5.646000	-0.000000	-0.000000	0.000000	0.200000	0.000000	-0.300000	0.000000	0.000000	-0.000000	13.449670	92.234726	-27.202309	0.293193	0.000000	-1.802501	0.000012	-0.258987	0.000001	-0.000000	-0.000000	0.000000	0.200000	0.000000	-0.902000	0.000000	0.000000	-0.000000	-0.000000	-0.000000	0.000000	0.200000	0.000000	0.904000	0.000000	0.000000	-0.000000	-0.000000	-0.000000	0.000000	0.400000	0.000000	0.302000	0.000000	0.000000	-0.000000	
5.647000	-0.000000	-0.000000	0.000000	0.200000	0.000000	-0.300000	0.000000	0.000000	-0.000000	13.773115	91.914177	-26.719692	0.289590	0.000000	-1.802086	0.000002	-0.626399	0.000004	-0.000000	-0.000000	0.000000	0.200000	0.000000	-0.902000	0.000000	0.000000	-0.000000	-0.000000	-0.000000	0.000000	0.200000	0.000000	0.904000	0.000000	0.000000	-0.000000	-0.000000	-0.000000	0.000000	0.400000	0.000000	0.302000	0.000000	0.000000	-0.000000	
5.648000	-0.000000	-0.000000	0.000000	0.200000	0.000000	-0.300000	0.000000	0.000000	-0.000000	13.289476	88.724304	-27.362505	0.294181	0.000000	-1.804748	0.000013	-0.237777	0.000001	-0.000000	-0.000000	0.000000	0.200000	0.000000	-0.902000	0.000000	0.000000	-0.000000	-0.000000	-0.000000	0.000000	0.200000	0.000000	0.904000	0.000000	0.000000	-0.000000	-0.000000	-0.000000	0.000000	0.400000	0.000000	0.302000	0.000000	0.000000	-0.000000	
5.649000	-0.000000	-0.000000	0.000000	0.200000	0.000000	-0.300000	0.000000	0.000000	-0.000000	12.645643	88.724640	-28.005322	0.290372	0.000000	-1.798311	0.000008	-0.008753	-0.000000	-0.000000	-0.000000	0.000000	0.200000	0.000000	-0.902000	0.000000	0.000000	-0.000000	-0.000000	-0.000000	0.000000	0.200000	0.000000	0.904000	0.000000	0.000000	-0.000000	-0.000000	-0.000000	0.000000	0.400000	0.000000	0.302000	0.000000	0.000000	-0.000000	
5.650000	-0.000000	-0.000000	0.000000	0.200000	0.000000	-0.300000	0.000000	0.000000	-0.000000	12.646153	86.495743	-28.004982	0.294039	0.000000	-1.812585	0.000006	-0.112556	-0.000001	-0.000000	-0.000000	0.000000	0.200000	0.000000	-0.902000	0.000000	0.000000	-0.000000	-0.000000	-0.000000	0.000000	0.200000	0.000000	0.904000	0.000000	0.000000	-0.000000	-0.000000	-0.000000	0.000000	0.400000	0.000000	0.302000	0.000000	0.000000	-0.000000	
5.651000	-0.000000	-0.000000	0.000000	0.200000	0.000000	-0.300000	0.000000	0.000000	-0.000000	12.485450	85.855316	-27.202309	0.290136	0.000000	-1.798707	0.000005	-0.199799	0.000001	-0.000000	-0.000000	0.000000	0.200000	0.000000	-0.902000	0.000000	0.000000	-0.000000	-0.000000	-0.000000	0.000000	0.200000	0.000000	0.904000	0.000000	0.000000	-0.000000	-0.000000	-0.000000	0.000000	0.400000	0.000000	0.302000	0.000000	0.000000	-0.000000	
5.652000	-0.000000	-0.000000	0.000000	0.200000	0.000000	-0.300000	0.000000	0.000000	-0.000000	12.648701	84.580772	-27.040760	0.290883	0.000000	-1.791056	0.000012	-0.338841	0.000000	-0.000000	-0.000000	0.000000	0.200000	0.000000	-0.902000	0.000000	0.000000	-0.000000	-0.000000	-0.000000	0.000000	0.200000	0.000000	0.904000	0.000000	0.000000	-0.000000	-0.000000	-0.000000	0.000000	0.400000	0.000000	0.302000	0.000000	0.000000	-0.000000	
5.653000	-0.000000	-0.000000	0.000000	0.200000	0.000000	-0.300000	0.000000	0.000000	-0.000000	12.166080	82.027664	-26.879887	0.292844	0.000000	-1.801082	0.000009	-0.296933	0.000000	-0.000000	-0.000000	0.000000	0.200000	0.000000	-0.902000	0.000000	0.000000	-0.000000	-0.000000	-0.000000	0.000000	0.200000	0.000000	0.904000	0.000000	0.000000	-0.000000	-0.000000	-0.000000	0.000000	0.400000	0.000000	0.302000	0.000000	0.000000	-0.000000	
5.654000	-0.000000	-0.000000	0.000000	0.200000	0.000000	-0.300000	0.000000	0.000000	-0.000000	11.361545	79.475235	-26.880226	0.291280	0.000000	-1.796950	0.000002	-0.123466	0.000002	-0.000000	-0.000000	0.000000	0.200000	0.000000	-0.902000	0.000000	0.000000	-0.000000	-0.000000	-0.000000	0.000000	0.200000	0.000000	0.904000	0.000000	0.000000	-0.000000	-0.000000	-0.000000	0.000000	0.400000	0.000000	0.302000	0.000000	0.000000	-0.000000	
5.655000	-0.000000	-0.000000	0.000000	0.200000	0.000000	-0.300000	0.000000	0.000000	-0.000000	10.717203	78.198669	-25.915665	0.291883	0.000000	-1.807652	0.000011	-0.018561	0.000001	-0.000000	-0.000000	0.000000	0.200000	0.000000	-0.902000	0.000000	0.000000	-0.000000	-0.000000	-0.000000	0.000000	0.200000	0.000000	0.904000	0.000000	0.000000	-0.000000	-0.000000	-0.000000	0.000000	0.400000	0.000000	0.302000	0.000000	0.000000	-0.000000	
